<?xml version="1.0" encoding="UTF-8"?>
<!DOCTYPE svg PUBLIC "-//W3C//DTD SVG 1.1//EN" "http://www.w3.org/Graphics/SVG/1.1/DTD/svg11.dtd">
<!-- Creator: CorelDRAW -->
<svg xmlns="http://www.w3.org/2000/svg" xml:space="preserve" width="54.8252mm" height="56.9913mm" version="1.1" style="shape-rendering:geometricPrecision; text-rendering:geometricPrecision; image-rendering:optimizeQuality; fill-rule:evenodd; clip-rule:evenodd"
viewBox="0 0 1172.36 1218.68"
 xmlns:xlink="http://www.w3.org/1999/xlink"
 xmlns:xodm="http://www.corel.com/coreldraw/odm/2003">
 <defs>
  <style type="text/css">
   <![CDATA[
    .fil0 {fill:#006842}
   ]]>
  </style>
 </defs>
 <g id="Слой_x0020_1">
  <metadata id="CorelCorpID_0Corel-Layer"/>
  <g id="_1938564886576">
   <path class="fil0" d="M327.86 1187.88c4.27,7.22 10.82,13.73 12.38,22.68 0.21,1.23 -0.09,2.36 -0.88,3.32 -0.79,0.95 -1.85,1.46 -3.1,1.48 -2.11,0.03 -4.2,-0.14 -6.29,-0.47 -7.07,-1.12 -14.06,-4.1 -20.95,-6.11 -9.92,-2.9 -19.35,-3.98 -29.68,-3.64 -16.44,0.55 -35.85,6.31 -52.34,9.22 -22.07,3.9 -44.08,5.26 -65.9,-0.97 -9.37,-2.68 -17.56,-6.67 -25.87,-11.67 -5.49,-3.3 -11.1,-7.2 -16.92,-9.99 -4.71,2.71 -10.62,9.6 -14.97,12.8 -11.98,8.79 -26.53,10.53 -41.01,9.95 -13.49,-0.54 -24.54,-2.55 -36.74,-8.39 -6.9,-3.3 -13.47,-7.14 -20.46,-10.32 -7.17,-3.27 -6.59,-8.41 0.33,-11.39 7.22,-3.11 14.14,-7.2 21.15,-10.79 24.9,-12.74 44.1,-25.13 61.74,-47.27 4.94,-6.21 9.02,-12.62 12.68,-19.64 2.92,-5.6 5.5,-11.41 8.68,-16.87 11.15,-19.12 30.37,-28.43 50.31,-35.95 -0.41,-0.64 -0.81,-1.25 -1.14,-1.79 -1.95,-3.19 -3.76,-6.44 -5.17,-9.91 -3.85,-9.44 -4.18,-18.99 0.84,-28.12 4,-7.29 9.18,-7.24 7.74,-15.96 -4.27,-25.84 6.46,-50.73 34.74,-53.78 18.28,-1.97 29.1,5.18 40.22,17.99 7.28,-0.29 12.32,-3.42 21.37,-2.28 6.59,0.83 10.22,3.68 14.9,6.32 1.41,-3.52 2.51,-7.1 3.62,-10.78 5.06,-16.83 10.41,-26.36 23.33,-38.83 11.68,-11.26 24.46,-20.07 38.24,-28.52 14.39,-8.81 28.88,-16.96 42.45,-27.08 16.78,-12.51 30.72,-26.89 43.1,-43.77 3.98,-5.42 5.04,-9.62 11.78,-12.65 0.45,-0.2 0.87,-0.31 1.36,-0.35 5.03,-0.39 10.5,5.41 13.29,8.99 5.29,6.77 8.9,15.17 10.86,23.5 6.9,29.37 -5.44,59.25 -22.3,82.88 -3.56,4.99 -7.29,9.54 -11.47,14.02 -1.73,1.85 -4.46,4.2 -6.86,6.65 5.3,-0.67 10.55,-1.34 16.1,-1.41 24.68,-0.31 38.07,11.45 35.75,37.46 -3.05,34.21 -32.17,33.68 -58.53,32.29 0.75,0.91 1.43,1.71 1.88,2.26 4,4.86 7.79,9.67 11.08,15.05 9.75,15.98 12.64,33.16 8.71,51.51 -2.45,11.45 -12.31,25.59 -22.15,31.83 -13.88,8.8 -26.61,5.32 -41.33,6.71 -0.01,8.82 1.17,9.42 11.32,12.52 25.88,7.89 56.16,1.09 80.11,-9.95 27.11,-12.5 63.21,-39.58 68.06,-71.28 3.1,-20.25 4.34,-41.46 5.29,-61.92 1.2,-25.92 1.69,-51.91 1.94,-77.86 0.41,-42.97 -0.06,-85.9 -0.08,-128.85 -17.21,-9 -34.56,-19.73 -50.51,-30.67 -1.14,-0.78 -1.77,-1.98 -1.78,-3.37l-0.18 -93.38c-0,-1.19 0.45,-2.22 1.33,-3.03 0.88,-0.8 1.94,-1.17 3.13,-1.06 7.35,0.66 21.8,10.58 28.2,14.69 3.87,2.48 13.16,8.67 19.65,11.58l0.18 -372.23 -282.89 -0.36c-1.73,-0 -3.2,-1.01 -3.81,-2.63 -3.17,-8.26 -2.05,-70.98 -0.95,-83.08 0.19,-2.07 1.88,-3.66 3.96,-3.72 71.81,-2.03 143.88,-0.13 215.73,-0.13 11.86,0 23.77,0.39 35.67,0.4 5.27,0 25.8,0.27 32.41,-0.97 1.22,-6.82 0.71,-29.31 0.2,-39.58l-86.68 -0.61c-2.19,-0.01 -3.98,-1.74 -4.06,-3.93 -0.53,-13.28 -0.61,-26.77 -0.67,-40.06 -0.04,-8.73 -0.03,-17.48 0.19,-26.2 0.11,-4.35 0.1,-12.02 1.21,-16.15 0.49,-1.81 2.07,-3.03 3.95,-3.03l85.64 -0.16 0.1 -77.02c0,-2.25 1.84,-4.09 4.09,-4.09l83.77 0c2.24,0 4.08,1.82 4.09,4.06l0.56 77.38 85.88 0.44c2.25,0.01 4.08,1.85 4.07,4.1l-0.15 80.56c-0,2.24 -1.82,4.07 -4.06,4.08l-86.62 0.64c-0.7,12.65 -0.4,25.81 -0.09,38.39 0.01,0.43 0.07,1.57 0.26,2.13 1.45,0.25 8.47,-0.35 9.83,-0.37 44.39,-0.32 88.8,-0.43 133.2,-0.47 31.47,-0.03 62.95,-0.03 94.42,0.21 10.66,0.08 21.33,0.17 31.99,0.43 2.85,0.07 12.4,0.04 14.91,0.97 1.08,0.4 1.86,1.14 2.32,2.19 0.24,0.55 0.42,1.14 0.56,1.71 0.08,0.33 0.12,0.62 0.12,0.96l0.27 79.41c0,1.13 -0.4,2.1 -1.19,2.9 -0.8,0.8 -1.77,1.2 -2.9,1.2l-283.41 0.43 -0.03 426.4 51.57 30.32c1.3,0.76 2.03,2.06 2.02,3.56l-0.79 93.75c-0.02,2.16 -1.71,3.93 -3.87,4.05 -4.63,0.25 -34.57,-16.42 -47.9,-25.16 -0.45,5.64 -0.47,12.99 -0.55,16.31 -0.32,13.82 -0.31,27.67 -0.25,41.49 0.09,20.97 0.45,41.91 0.7,62.87 0.25,20.92 0.87,41.82 2.16,62.7 1.64,26.63 1.19,25.32 14.99,46.65 8.79,13.58 16.11,23.46 28.68,33.91 28.78,23.94 78.67,43.43 115.54,29.27 7.02,-2.7 8.87,-6.02 9.13,-12.14 -6.86,0.06 -13.66,0.47 -20.56,-0.06 -24.45,-1.89 -37.13,-15.4 -43.45,-38.9 -4.65,-17.3 -0.74,-33.4 8.35,-48.42 3.4,-5.62 7.32,-10.76 11.39,-15.89 0.7,-0.89 1.68,-2.06 2.68,-3.32 -11.78,0.69 -21.82,2.07 -34.83,-1.23 -27.32,-6.95 -32.89,-50.61 -10.44,-64.49 7.2,-4.45 24.77,-3.56 36.93,-3.15 -2.4,-2.74 -5.41,-5.19 -7.57,-7.74 -20.18,-23.76 -39.55,-62.41 -32.12,-94.25 2.45,-10.48 11.07,-29.93 22.12,-33.31 1.14,-0.35 2.25,-0.22 3.28,0.39 7.48,4.42 14.9,15.91 20.54,22.78 19.63,23.93 43.29,39.93 69.21,56.15 20.66,12.93 44.92,27.07 59.04,47.42 7.72,11.12 11.87,23.18 13.21,36.31 0.28,-0.2 0.51,-0.38 0.67,-0.5 3.2,-2.32 6.4,-4.45 10.2,-5.66 10.41,-3.33 13.1,-1.29 22.59,1.09 3.25,0.81 8.18,-6.92 10.7,-9.04 17.06,-14.37 47.02,-11.94 60.33,6.24 5.8,7.92 7.31,17.76 6.88,27.35 -0.17,3.81 -0.65,7.58 -1.28,11.34 -0.24,1.44 -0.61,3.08 -0.85,4.63 7.67,7.83 12.24,11.85 13.16,24.73 0.63,8.72 -1.2,13.95 -6.21,20.85 -1.11,1.53 -2.16,2.96 -3.03,4.51l9.76 4.2c20.09,9.74 33.96,19.84 44.46,39.73 5.22,9.89 9.09,19.06 15.86,28.21 10.39,14.04 24.8,25.26 39.35,34.7l47.4 25.73c1.35,0.74 2.14,2.06 2.14,3.6l0 1.68c0,1.65 -0.92,3.06 -2.42,3.74 -9.23,4.12 -17.64,9.54 -27.14,13.24 -12.31,4.79 -20.6,6.27 -33.91,6.44 -12.55,0.16 -26.06,-1.26 -36.9,-8.14 -6.34,-4.03 -9.94,-9.24 -15.5,-13.29 -0.66,-0.48 -1.35,-0.92 -2.06,-1.3 -9.88,5.06 -18.24,11.84 -28.78,16.45 -36.58,15.98 -52.04,10.67 -89.3,4.09 -17.41,-3.63 -40.02,-7.86 -57.9,-6.29 -9.19,0.81 -13.56,2.97 -21.73,6.26 -6.08,2.45 -11.29,3.31 -17.88,2.99 -2.1,-0.1 -3.76,-1.75 -3.89,-3.84 -0.56,-9.33 6.68,-16.45 11.31,-23.77 -6.65,-0.21 -13.15,-0.94 -19.11,-4.21 -1.27,-0.69 -3.83,-0.48 -5.18,-0.4 -4.86,0.31 -9.46,1.14 -14.19,2.25 -10.02,2.35 -18.42,4.47 -28.84,5.2 -18.55,1.3 -38.49,-1.05 -56.8,-3.89 -39.03,-6.07 -62.65,-29.07 -94.98,-47.42 -1.48,1.11 -3.11,2.86 -4.08,3.84 -3.01,3.06 -5.95,5.87 -9.77,7.93 -14.49,7.8 -36.08,9 -51.43,3.2 -4.54,-1.71 -8.8,-4.02 -12.27,-7.45 -0.88,-0.86 -2.68,-3.23 -3.6,-4.09 -3.22,0.75 -17.72,10.68 -19.95,12.18 -20.26,13.51 -53.75,29.45 -77.94,32.51 -19.99,2.53 -42.75,4.69 -62.87,2.29 -9.88,-1.18 -16.96,-3.86 -26.23,-5.96 -2.67,-0.61 -5.26,-0.94 -8.01,-0.96 -4.55,-0.02 -7.61,3.17 -12.05,4.43 -3.78,1.07 -7.42,0.93 -11.09,0.83zm231.34 -1168.03l-0.24 74.9c-0.01,2.25 -1.84,4.08 -4.09,4.08l-86.21 0.03 -0.2 51.61 85.88 0.62c2.23,0.02 4.05,1.83 4.06,4.06l0.59 69.62c0.01,1.14 -0.39,2.11 -1.19,2.92 -0.8,0.8 -1.77,1.21 -2.91,1.21 -47.27,-0.03 -94.57,-0.53 -141.85,-0.67 -31.93,-0.09 -63.87,-0.15 -95.79,0.08 -11.04,0.08 -22.09,0.18 -33.13,0.47 -3.02,0.08 -9.12,0.02 -12.93,0.47 -0.16,0.94 -0.2,1.73 -0.24,2.59l0.39 51.26 283.04 0.37c2.05,0 3.76,1.49 4.05,3.52 0.92,6.48 0.64,15.68 0.73,22.31 0.22,15.73 0.28,31.46 0.32,47.19 0.13,45.52 -0.01,91.05 -0.2,136.57 -0.19,44.82 -0.46,89.64 -0.88,134.46 -0.15,15.75 -0.31,31.51 -0.54,47.26 -0.12,7.72 -0.09,15.73 -0.54,23.42 -0.07,1.25 -0.64,2.29 -1.64,3.04 -1,0.75 -2.17,0.99 -3.39,0.7 -9.24,-2.18 -21.22,-10.02 -29.32,-15.11 -5.94,-3.74 -13.05,-8.54 -19.81,-11.95 -0.47,9.33 -0.4,19.14 -0.42,28.26 -0.02,7.22 0.02,14.46 0.24,21.68 0.09,2.98 0.12,7.56 0.61,10.94l52.85 31.22c1.17,0.69 1.87,1.8 2,3.15 1.2,13.06 1.05,27.28 1.1,40.41 0.08,20.3 -0.13,40.62 -0.41,60.92 -0.45,32.42 -1.06,64.88 -2.04,97.29 -0.95,31.39 -5.03,62.56 -5.04,94 -0.01,15.11 0.8,31.11 2.9,46.07 2.13,15.2 1.5,22 16.73,27.98 12.59,4.94 24.14,3.68 34.59,-5.07 9.18,-7.69 14.44,-18.3 13.91,-30.41 -1.39,-31.81 -3.93,-63.56 -5.21,-95.38 -1.3,-32.06 -2.55,-64.11 -3.37,-96.18 -0.49,-19.31 -0.86,-38.65 -0.84,-57.98 0.02,-14.23 0.06,-29.14 1.39,-43.31 0.11,-1.13 0.61,-2.07 1.49,-2.79 0.89,-0.72 1.91,-1.02 3.04,-0.89 7.84,0.88 39.22,20.66 48.06,25.81 0.54,0.31 1.22,0.76 1.86,1.1 2.09,-12.19 0.74,-47.73 0.3,-60.64 -17.34,-10.6 -35.3,-20.15 -52.65,-30.72 -1.25,-0.76 -1.96,-2.02 -1.96,-3.49l-0.91 -449.08c-0,-1.13 0.4,-2.1 1.2,-2.9 0.8,-0.8 1.77,-1.2 2.9,-1.2l283.45 -0.2 0.37 -54.47 -283.43 -0.09c-2.25,0 -4.08,-1.83 -4.09,-4.07l-0.3 -69.64c-0,-1.13 0.4,-2.1 1.19,-2.91 0.8,-0.8 1.77,-1.2 2.9,-1.2l88.47 -0.06 0.14 -51.72 -88.56 -0.55c-2.24,-0.01 -4.06,-1.84 -4.07,-4.08l-0.15 -74.54 -52.18 -0.3zm-249.38 1172.18c-6.38,-6.87 -19.41,-15.47 -23.86,-17.58 -15.77,-7.45 -27.2,-8.32 -44.4,-9.59 -1.33,-0.1 -2.44,-0.76 -3.15,-1.89 -0.72,-1.12 -0.85,-2.41 -0.37,-3.65 2.43,-6.37 9.42,-15.15 7.59,-22.2 -1.48,-5.67 -7.95,-11.77 -13.37,-13.73 -6.69,-2.41 -14.34,0.84 -19.04,5.74 -2.1,2.19 -3.58,4.38 -3.92,7.44 -0.64,5.73 0.71,10.73 -0.43,17.27 -0.18,1.05 -0.69,1.89 -1.54,2.54 -21.6,16.56 -47.9,-4.25 -50.64,-27.53 -3.25,-27.6 19.72,-41.27 44.27,-42.68 24.68,-1.42 41.4,8.49 61.61,20.31 7.57,4.43 35.37,23.88 44.7,27.93 2.94,-5.07 7.31,-15.91 9.09,-20 0.75,-1.72 1,-3.37 0.67,-5.22 -0.9,-5.07 -5.88,-11.57 -7.64,-17.3 -6.23,-20.24 -2.76,-43.95 16.46,-55.72 18.51,-11.33 42.13,-8.49 56.34,8.27 2.25,2.66 3.98,5.66 5.2,8.91 2.44,6.52 2.74,13.67 2.03,20.55 -0.71,6.81 -2.4,13.5 -4.39,20.03 -0.64,2.1 -1.58,4.68 -2.38,7.17 12.15,-0.65 21.06,-3.44 29.61,-13.77 8.01,-9.67 11.98,-24.61 7.82,-36.7 -8.53,-24.77 -22.29,-31.7 -39.28,-48.65 -1.17,-1.17 -2.92,-3.13 -3.6,-4.58 -3.72,-7.97 2.71,-10.74 9.56,-10.46 4.04,0.16 10.18,1.93 14.24,2.82 7.05,1.55 14.19,2.9 21.39,3.52 14.65,1.25 32.11,-0.06 34.61,-17.83 0.72,-5.13 0.84,-11.8 -3.37,-15.58 -12.66,-11.4 -53.39,5.26 -70.22,0.21 -1.8,-0.54 -2.98,-2.18 -2.91,-4.06 0.3,-8.77 8.9,-12.67 15.09,-16.94 28.38,-19.56 66.21,-72.15 46.26,-107.34 -1.11,-1.96 -1.44,-2.95 -2.57,-3.77 -5.38,4.24 -13.29,14.21 -17.22,18.52 -12.03,13.22 -24.79,24.55 -39.68,34.51 -14.96,10.01 -30.4,18.9 -45.57,28.5 -10.74,6.8 -21.77,14.34 -29.94,24.21 -16.61,20.07 -18.37,48.34 -18.13,73.28 0.17,18.14 0.96,36.25 1.88,54.36 0.39,7.71 1.36,15.73 3.98,23.03 1.51,4.2 3.78,8.02 5.24,12.14 1.08,3.02 1.52,5.95 1.43,9.16 -0.06,2.19 -1.83,3.94 -4.02,3.98 -6.08,0.1 -27.73,-14.29 -33.66,-17.73 -17.45,-10.12 -36.4,-19.42 -56.25,-23.62 -25.24,-5.34 -48.51,-1.52 -68.57,15.45 -9.5,8.04 -15.21,15.83 -21.06,26.67 -5.41,10.04 -9.89,18.88 -17.13,27.9 -11.23,13.99 -26.08,25.44 -40.97,35.26 -5.04,3.32 -21.05,11.72 -28.78,17.02 13.76,6.19 32.09,9.28 46.22,6.96 21.83,-3.59 22.71,-17.91 37.83,-27.16 1.27,-0.78 2.75,-0.82 4.07,-0.12 6.83,3.67 12.26,9.73 19.04,13.73 50.65,29.93 71.68,15.51 123.97,6.5 14.25,-2.46 25.31,-3.02 39.45,-0.19 2.83,0.57 5.61,1.15 8.4,1.67zm555.38 -56.94c5.48,-1.74 15.89,-8.91 18.81,-10.88 12.54,-8.47 24.78,-17.1 38.11,-24.33 14.5,-7.86 31.37,-14.7 48.13,-14.34 19.68,0.42 39.18,8.54 44.79,29.03 4.02,14.71 -1.07,32.17 -13.6,41.27 -10.63,7.73 -23.39,7.17 -34.86,1.61 -1.21,-0.59 -2,-1.62 -2.24,-2.94 -1.91,-10.36 3.81,-14.97 -3.13,-24.21 -4.63,-6.16 -11.81,-9.28 -19.43,-7.4 -6.06,1.5 -10.73,8.22 -12.34,13.97 -3.39,12.1 4.29,12.55 6.6,22.85 0.27,1.2 0.03,2.34 -0.7,3.33 -0.73,0.99 -1.75,1.55 -2.97,1.65 -21.25,1.66 -42.42,5.35 -59.2,19.5 -2.05,1.73 -5.43,4.54 -8.17,7.48 5.69,-0.85 11.4,-1.7 17.08,-2.2 11.71,-1.03 22.68,0.04 34.25,1.88 51.32,8.14 72.08,22.4 120.64,-8.5 6.21,-3.95 11.4,-9.68 17.95,-13.11 1.35,-0.71 2.87,-0.64 4.14,0.2 5.62,3.69 10.87,12.61 16.41,17.32 17.5,14.88 46.67,13.6 66.77,3.54 -2.91,-2 -6.51,-3.95 -8.57,-5.11 -7.99,-4.5 -15.89,-8.87 -23.56,-13.92 -22.42,-14.75 -40.19,-32.96 -52.58,-56.97 -6.36,-12.32 -11.87,-22.84 -22.97,-31.53 -42.98,-33.63 -98.96,-10.23 -138.63,16.58 -6.66,4.5 -14.27,11.06 -22.97,8.67 -1.89,-0.52 -3.13,-2.25 -3,-4.2 0.32,-5.1 5.6,-15.22 7.52,-20.54 0.84,-2.32 1.59,-4.72 2.06,-7.15 1.46,-7.48 2,-15.82 2.48,-23.42 0.67,-10.72 1.03,-21.47 1.3,-32.21 0.44,-18.27 0.54,-36.54 0.56,-54.82 0.01,-13.38 -18.68,-33.89 -28.32,-42.26 -12.84,-11.15 -25.89,-19.63 -40.33,-28.43 -11.64,-7.1 -22.81,-14.1 -33.57,-22.54 -14.94,-11.73 -28.26,-25.25 -40.65,-39.61l-6 -6.96c-12.65,18.22 -6.54,46.32 2.77,64.53 8.7,17.02 20.07,30.99 34.88,43 4.48,3.63 9.14,6.88 13.7,10.37 2.97,2.27 7.06,5.4 7.3,9.45 0.7,11.59 -14.1,9.23 -21.18,7.69 -14.88,-3.23 -25.01,-7.13 -40.87,-5.28 -21.32,2.49 -20.14,37.54 14.43,37.58 8.36,0.01 15.39,-1.08 23.45,-3.07 7.18,-1.76 17.55,-5.27 24.8,-4.54 2,0.2 3.53,1.77 3.67,3.78 0.09,1.23 0.02,2.45 -0.22,3.66 -1.71,8.74 -13.72,16.86 -20.12,22.62 -11.47,10.33 -19.19,21.2 -23.34,36.27 -3.34,12.15 0.46,25.51 8.41,35.06 8.21,9.86 17.84,13.89 29.88,13.71 -3.22,-9.02 -6.6,-16.81 -7.83,-27.26 -1.19,-10.09 0.17,-20.12 6.45,-28.42 12.46,-16.48 39.98,-20.89 57.28,-9.59 21.11,13.79 25.55,48.87 10.74,68.59 -0.54,0.72 -3.89,4.87 -4.02,5.62 -0.19,1.1 5.59,12.61 6.2,13.92 1.7,3.65 2.63,7.33 3.83,11.02zm-589.47 -83.35c-0.21,-5.62 -0.65,-11.21 -1.07,-16.3 -0.99,-11.96 -2.39,-24.23 -4.44,-36.07 -1.6,-9.17 -2.27,-18.35 -11.95,-22.22 -12.12,-4.84 -14.66,7.55 -24.94,10.39 -2.05,0.57 -4.19,-0.52 -4.93,-2.52 -2.83,-7.63 -5.29,-15.39 -12.49,-19.99 -15.31,-9.79 -34.82,-1.26 -39.14,16.11 -2.09,8.38 6.01,18.11 8.34,25.97 0.46,1.53 0.03,3.09 -1.15,4.17 -5.24,4.83 -9.3,4.75 -13.96,10.84 -4.64,6.06 -4.3,9.28 -0.65,15.69 1.65,2.9 3.69,5.32 6.44,7.23 6.52,4.55 17.54,6.06 25.26,7.49 15.49,2.85 29.34,6.34 43.96,12.46 5.41,2.27 10.65,4.86 15.81,7.64 -8.72,-7.4 -18.94,-12.96 -29.74,-17.63 -9.23,-4 -31.77,-11.03 -37.9,-18.13 -1.01,-1.17 -1.27,-2.68 -0.73,-4.12 0.55,-1.44 1.75,-2.4 3.28,-2.61 14.13,-1.91 23.78,2.49 35.25,5.47 -4.8,-5.88 -12.13,-13.49 -14.13,-15.62 -5.22,-5.55 -17.8,-18.32 -19.84,-25.41 -0.43,-1.49 -0.03,-2.98 1.08,-4.06 1.11,-1.08 2.61,-1.44 4.09,-0.97 9.68,3.06 21.29,12.89 28.84,19.62 6.1,5.44 11.97,11.12 17.8,16.85 0.56,0.55 1.23,1.23 1.95,1.97 -1.76,-9.66 -3.78,-20.15 3.22,-27.48 1.01,-1.06 2.39,-1.48 3.81,-1.17 1.43,0.31 2.51,1.25 3,2.63 3.81,10.73 6.78,22.38 10.02,33.34 1.06,3.58 2.85,10.01 4.88,16.43zm665.78 -16.01c11.42,-2.93 20.68,-7.52 35.32,-5.54 1.53,0.21 2.74,1.17 3.28,2.62 0.54,1.45 0.26,2.97 -0.76,4.14 -5.44,6.17 -16.53,8.82 -24.03,11.9 -14.25,5.87 -30.53,13.02 -43.21,23.39 4.78,-2.49 9.53,-4.78 14.6,-6.91 14.54,-6.1 28.38,-9.8 43.84,-12.49 7.64,-1.33 18.3,-2.54 25.01,-6.5 3.22,-1.91 5.68,-4.43 7.75,-7.54 4.39,-6.55 5.19,-12.55 -0.55,-18.42 -2.13,-2.18 -4.73,-3.94 -7.35,-5.49 -1.67,-0.98 -4.88,-2.52 -6.11,-3.88 -0.98,-1.09 -1.3,-2.49 -0.89,-3.9 2.8,-9.51 10.03,-13.86 8.05,-25.09 -1,-5.66 -7.81,-15.29 -12.69,-18.2 -6.61,-3.95 -18.4,-4.37 -24.55,0.71 -8.98,7.41 -9.84,9.7 -13.5,20.51 -0.66,1.94 -2.61,3.09 -4.63,2.71 -10.17,-1.89 -10.43,-15.25 -25.38,-10.21 -10.75,3.62 -9.71,12.26 -11.45,22 -2.05,11.46 -4.74,21.92 -5.8,33.64 -0.39,4.25 -0.79,8.81 -1.1,13.45l14.39 -45.4c0.47,-1.47 1.62,-2.5 3.14,-2.79 1.52,-0.29 2.97,0.24 3.94,1.44 6.28,7.73 4.57,18.64 2.85,28.67 0.89,-0.91 1.66,-1.71 2.2,-2.25 5.91,-5.89 11.81,-11.79 17.97,-17.41 7.67,-7.01 19.28,-17.06 29.24,-20.23 1.41,-0.45 2.84,-0.15 3.95,0.83 1.11,0.98 1.59,2.36 1.32,3.81 -1.26,6.84 -15.67,21.3 -20.61,26.58 -2.16,2.3 -9.46,9.92 -14.24,15.85zm-598.92 10.89c-13.56,4.31 -23.02,18.87 -20,33.02 6.37,29.85 20.33,8.77 36.83,17.58 1.05,0.56 3.81,1.93 5.07,1.31 1.91,-0.94 4.11,-7.22 4.83,-9.11 2.77,-7.27 5.81,-15.41 4.55,-23.31 -2.13,-13.28 -18.35,-23.61 -31.28,-19.49zm468.24 52.9c1.83,-0.3 3.13,-1.01 5.02,-2.06 6.6,-3.64 11.86,-3.23 19.05,-1.28 9.53,2.59 10,0.26 13.78,-7.97 14.19,-30.93 -25.1,-59.87 -45.63,-30.15 -6.11,8.85 0.65,32.75 7.78,41.46zm-618.68 45.44c1.73,-11.37 -0.84,-14.73 8.47,-26.46 6.25,-7.88 15.44,-11.87 24.8,-12.25 -15.96,-6.05 -33.33,-6.72 -46.78,5.96 -12.22,11.52 -2.6,33.36 13.51,32.75zm65.13 -21.83c5.3,9.12 3.53,16.98 3.71,27.02 0.01,0 0.02,0 0.03,0.01 3.15,0.75 6.65,0.97 9.89,1.59 6.45,1.25 12.66,3.46 18.68,6.05 4.68,2.01 9.39,4.3 13.77,6.9 1.28,0.76 2.47,1.6 3.62,2.47 -1.44,-5.88 -3.96,-11.89 -7.68,-15.1 -9.46,-8.16 -21.19,-15.8 -31.74,-22.51 -3.34,-2.13 -6.78,-4.3 -10.28,-6.44zm655.08 26.63c1.05,-10.19 -1.07,-18.08 4.01,-27.01 -17.36,10.28 -32.79,22.24 -41.36,29.75 -3.47,3.05 -6.04,8.96 -7.8,14.66 0.45,-0.29 0.87,-0.56 1.27,-0.81 5.43,-3.37 10.87,-6.28 16.79,-8.71 4.39,-1.8 9.6,-3.03 14.21,-4.23 3.16,-0.82 9.15,-2.16 12.86,-3.65zm39.27 -43.31c11.83,1.07 20.68,7.29 25.87,18.56 1.94,4.21 3.18,8.69 4.08,13.23 0.33,1.67 0.72,4.99 1.24,6.77 5.59,3.74 28.34,-16.82 11.58,-33.45 -10.33,-10.26 -25.97,-10.23 -42.77,-5.11zm-312.5 -26.07c-1.24,8.14 -1.48,21.06 -1.67,25.85 -0.1,2.65 -1.49,15.47 -0.75,17.49 0.77,2.1 6.27,6.13 7.99,7.49 26.77,21.08 68.6,40.14 102.8,42.52 12.03,0.84 48.22,1.11 61.2,-5l-8.83 -23.73c-4.63,0.04 -11.54,1.12 -15.31,1.47 -11.03,1.02 -21.91,1.34 -32.97,0.44 -34.25,-2.79 -63.97,-16.63 -89.57,-39.42 -5.48,-4.88 -10.09,-10.27 -14.67,-16 -1.83,-2.3 -5.19,-7.3 -8.22,-11.1zm-109.29 8.17c-2.49,3.24 -5.03,6.81 -7.48,9.29 -5.12,5.16 -10.02,10.15 -15.7,14.71 -30.58,24.51 -76.14,41.27 -115.55,34.75 -5.02,-0.83 -9.95,-1.83 -14.91,-2.97 -0.83,-0.19 -2.97,-0.76 -4.37,-0.98 -0.39,1.12 -0.79,2.73 -1.03,3.49 -1.22,3.83 -2.73,7.48 -4.5,11.09 -1.4,2.83 -3.98,6.5 -5.08,9.91 13.76,4.67 35.76,6.76 49.27,6.76 34.04,0 60.62,-8.65 90.37,-24.4 5.48,-2.9 30.39,-17.07 32.3,-21.24 0.7,-4.65 -1.15,-19.11 -1.66,-24.27 -0.52,-5.23 -1.01,-10.73 -1.64,-16.13zm-174.98 49.98c1.88,-7.49 3.33,-35.37 -11.43,-26.37 -11.52,7.03 -17.61,18.03 -20.73,30.88 -1.63,6.71 -4.31,24.56 4.71,27.94 4.68,1.76 10.14,-1.87 13.35,-4.96 7.27,-6.97 11.7,-17.91 14.1,-27.49zm470.19 20.99l15.61 11.33c4.67,1.7 10.05,-2.67 11.36,-6.9 4.22,-13.69 -9.38,-48.57 -23.94,-53.5 -0.63,-0.21 -1.25,-0.29 -1.9,-0.15 -5.15,1.09 -8.54,12.57 -9.43,16.88 -0.99,4.82 -1.61,11.45 -0.35,16.26 1.12,4.26 5.79,12.15 8.66,16.08z"/>
   <path class="fil0" d="M812.44 1144.47c-3.44,-13.11 4.11,-42.25 16.96,-37.91 18.29,6.19 30.85,44.62 26.54,58.58 -1.69,5.47 -9.3,12.78 -17.27,9.3l-16.53 -11.99c-3.41,-4.52 -8.52,-13.48 -9.7,-17.99zm-453.6 -4.95c-12.04,48.14 -50.91,47.01 -40.11,2.56 3.66,-15.06 10.9,-26.28 22.58,-33.41 17.92,-10.93 21.23,16.06 17.53,30.85zm51.65 39.16c-16.02,0 -41.01,-2.92 -53.89,-8.2 0.13,-5.26 3.73,-9.71 6.03,-14.36 10.9,-22.13 -2.15,-18.03 29.15,-12.85 39.08,6.46 83.52,-10.82 112.33,-33.91 5.97,-4.78 10.1,-9.09 15.36,-14.4 2.82,-2.85 11.82,-14.96 13.24,-15.61 1.02,6.17 5.58,47.85 4.39,50.62 -2.68,6.25 -27.68,20.32 -34.33,23.83 -27.08,14.33 -54.51,24.87 -92.28,24.87zm226.59 -106.18c3.94,2.55 10.3,12.44 13.48,16.43 5.21,6.52 9.18,11.04 14.19,15.5 62.06,55.26 124.42,34.95 138.03,36.62l10.95 29.43c-10.65,8.2 -49.86,8.49 -66.5,7.33 -34.93,-2.44 -77.6,-21.78 -105.04,-43.39 -13.08,-10.3 -9.62,-7.95 -8.8,-28.35 0.32,-7.94 0.61,-27.82 3.7,-33.57zm279.07 79.99c-4.99,2.83 -22.06,5.96 -29.3,8.94 -13.81,5.68 -20.75,12.08 -25.89,13.96 1.62,-8.26 5.1,-20.47 11.37,-25.96 24.35,-21.35 94.2,-71.31 124.96,-40.77 20.93,20.77 -8.78,48.46 -17.83,38.84 -2.35,-2.46 -0.76,-37.1 -31.6,-37.12 -11.05,-0.01 -20.75,4.88 -25.6,10.98 -7.94,10.01 -4.2,17.96 -6.12,31.13zm-720.49 -3.83c-21.89,4.18 -35.61,-24.55 -19.82,-39.43 15.94,-15.03 37.45,-13.74 58.27,-3.7 16.55,7.98 52.85,30.47 67.87,43.44 6.03,5.2 9.99,16.94 10.52,27.41 -4.3,-2.68 -6.52,-5.37 -11.22,-8.16 -4.15,-2.47 -8.96,-4.8 -13.3,-6.66 -18.93,-8.14 -24.14,-5.53 -30.97,-8.42 -0.73,-12.64 2.26,-20.31 -4.63,-30.09 -10.87,-15.43 -36.01,-17.81 -48.55,-2.02 -9.29,11.71 -5.47,13.99 -8.17,27.62zm613.52 -44.9c-8.42,-8.16 -17.51,-36.43 -9.5,-48.04 23.07,-33.41 69.27,-1.89 52.72,34.18 -4.27,9.3 -6.24,13.57 -18.57,10.22 -15.77,-4.29 -14.57,3.36 -24.65,3.64zm-467.83 -61.05c15.45,-4.92 34.06,7.14 36.56,22.75 1.46,9.08 -1.99,18.14 -4.76,25.42 -3.54,9.28 -5.89,15.17 -15.65,9.95 -13.56,-7.24 -31.83,12.8 -38.91,-20.33 -3.87,-18.12 9.24,-33.48 22.76,-37.78zm600.5 -58.98c3.83,-11.32 4.94,-14.24 14.77,-22.36 7.73,-6.38 21.45,-5.73 29.25,-1.06 5.24,3.13 13.29,13.46 14.62,21.01 2.28,12.93 -5.57,18.2 -8.15,26.95 2.1,2.33 28.7,11.39 14.37,32.8 -13.23,19.77 -33.83,9.33 -78.42,28.03 -7.24,3.03 -11.91,5.44 -18.46,8.97 -6.65,3.58 -11,7.23 -16.3,9.24 12.14,-20.99 37.13,-32.74 60.23,-42.25 6.79,-2.8 17.95,-5.64 22.51,-10.83 -17.26,-2.34 -28.98,5.48 -43.07,7.27 1.91,-9.23 37.45,-39.88 39.13,-48.95 -18.81,5.98 -50.1,42.97 -56.26,46.52 0.72,-10.89 6.82,-27.7 -0.42,-36.62l-21.37 67.43c-0.11,0.21 -0.45,1.04 -0.53,0.86 -0.08,-0.19 -0.35,0.58 -0.56,0.84 -1.05,-11.24 0.21,-27.93 1.19,-38.79 1.3,-14.31 3.59,-21.39 5.84,-33.99 2.41,-13.43 1.81,-20.99 14.18,-25.15 17.04,-5.74 20.14,8.71 27.44,10.07zm-769.04 -3.58c4.95,-19.9 27.49,-29.96 45.31,-18.57 7.88,5.04 10.55,12.41 14.12,22.02 8.78,-2.43 12.77,-16.15 27.55,-10.25 10.67,4.26 12.22,12.42 14.46,25.31 3.01,17.34 7.2,54.63 5.05,72.73 -5.89,-8.67 -17.46,-54.34 -22.33,-68.07 -7.85,8.21 -0.87,25.48 -0.69,35.25 -5.48,-3.66 -37.28,-39.42 -55.32,-45.13 2.99,10.41 36.96,39.41 38.39,48.04 -13.32,-1.88 -26.56,-9.52 -43.07,-7.29 10.26,11.9 59.29,15.85 82.75,53.11 -6.18,-2.58 -19.4,-11.76 -35.6,-18.54 -42.75,-17.91 -66.12,-8.69 -77.63,-28.93 -4.18,-7.35 -5.01,-12.4 0.96,-20.2 5.87,-7.67 8.8,-6.16 14.44,-11.36 -2.45,-8.25 -10.96,-17.78 -8.39,-28.12zm752.7 155.62c2.23,-7.96 8.3,-15.12 15.3,-16.84 10.55,-2.61 19.02,2.71 23.68,8.91 8.27,11.01 1.96,15.46 3.88,25.93 46.47,22.53 68.84,-62.71 1.8,-64.15 -44.08,-0.95 -93.28,51.59 -107.75,49.89 -1.95,-5.07 -2.44,-8.74 -4.76,-13.73 -8.25,-17.72 -8.66,-14.51 -1.74,-23.72 13.2,-17.57 9.66,-50.06 -9.71,-62.71 -16.45,-10.74 -41.32,-5.21 -51.77,8.63 -13.95,18.46 0.28,46.28 3.73,56.97 -19.01,1.98 -30.39,-4.95 -38.63,-14.84 -7.94,-9.54 -13.21,-24.19 -9.21,-38.77 10.88,-39.55 44.64,-46.06 43.54,-61.17 -6.21,-0.62 -17.35,2.95 -23.41,4.44 -8.15,2.01 -14.99,3.19 -24.43,3.18 -40.13,-0.04 -41.01,-42.68 -14.9,-45.73 17.28,-2.02 28.05,2.27 42.22,5.35 4.88,1.06 16.66,3.7 16.23,-3.44 -0.43,-7.19 -33.09,-17.44 -55.45,-61.21 -10.55,-20.64 -17.12,-53.25 0.76,-72.79l9.22 10.68c48.83,57.13 74.52,55.75 114.14,90.17 10.56,9.17 29.74,30.36 29.73,45.36 -0.03,24.03 -0.09,89.1 -4.41,111.23 -2.06,10.53 -9.2,22.11 -9.52,27.16 6.97,1.91 14.8,-4.87 19.59,-8.12 42.13,-28.47 99.08,-51.12 143.45,-16.41 11.16,8.73 16.64,18.45 24.08,32.87 27.99,54.27 79.15,67.35 88.15,78.62 -18.1,11.3 -53.88,18.08 -76.49,-1.15 -4.96,-4.21 -12.26,-14.56 -16,-17.01 -5.73,3 -11.74,9.18 -17.65,12.94 -50.3,32.02 -73.21,17.06 -123.48,9.09 -27.73,-4.4 -35.15,-1.52 -58.86,1.58 1.52,-5.67 8.95,-11.9 13.71,-15.91 17.31,-14.6 38.8,-18.68 61.52,-20.45 -2.04,-9.06 -10.5,-10.75 -6.55,-24.85zm-540.91 -179.62c19.71,5.92 82.59,-23.7 76.47,19.86 -5.22,37.12 -64.89,15.4 -74.46,15.02 -5.4,-0.22 -7.48,0.8 -5.69,4.64 0.4,0.86 2.07,2.71 2.78,3.41 13.88,13.85 31.08,23.55 40.26,50.22 4.98,14.46 -0.42,30.85 -8.53,40.65 -9.27,11.2 -18.97,15.19 -38.08,15.41 1.38,-8.23 16.88,-40.41 1.73,-58.27 -10.82,-12.76 -31.57,-19.36 -51.07,-7.42 -15.26,9.34 -21.4,29.22 -14.69,51.03 2.94,9.55 10.92,15.92 6.82,25.35 -2.02,4.64 -9.06,21.02 -11.18,23.15 -6.29,-0.65 -38.07,-23.11 -48.44,-29.17 -17.76,-10.39 -34.69,-21.18 -59.31,-19.76 -22.66,1.3 -43.37,13.24 -40.44,38.12 2.3,19.52 24.6,39.69 44.08,24.76 2.15,-12.3 -3.22,-17.81 5.43,-26.84 4.46,-4.66 13.78,-10.22 23.38,-6.76 6.7,2.42 14.12,9.55 15.94,16.54 2.34,8.99 -5.01,17.57 -7.73,24.69 19.65,1.46 29.92,2.45 45.84,9.98 9.18,4.34 28.82,18.71 29.76,26.56 -18.79,-2.01 -24.83,-7.9 -54.8,-2.73 -50.83,8.76 -74.12,24.09 -126.75,-7.01 -7.5,-4.43 -12.72,-10.33 -18.9,-13.65 -12.81,7.83 -16.23,23.9 -39.3,27.7 -18.09,2.98 -40.47,-2.35 -54.18,-10.09 2.66,-4.11 27.3,-17.05 33.81,-21.34 62,-40.87 45.81,-61.68 78.77,-89.54 63.31,-53.53 148.18,25.15 161.06,24.93 0.35,-12.74 -9.11,-13.45 -10.65,-44.01 -0.92,-18.3 -1.71,-35.78 -1.89,-54.53 -0.8,-85.4 31.04,-86.34 95.46,-129.43 35.58,-23.8 48.63,-48.38 58.85,-54.38 3.61,1.43 4.07,2.3 6.45,6.49 20.5,36.17 -15.32,90.55 -47.49,112.73 -5.12,3.53 -13.1,7.16 -13.33,13.7zm170.53 -940.43l60.34 0.35 0.16 78.6 92.64 0.57 -0.16 59.88 -92.55 0.06 0.3 69.64 287.54 0.09 -0.43 62.65 -287.51 0.2 0.91 449.08c17.59,10.72 36.99,21.04 54.55,31.88 0.39,12.68 2.24,59.38 -1.36,67.67 -0.22,0.06 -0.58,0.06 -0.69,0.06l-2.96 -0.55c-0.88,-0.35 -2.3,-1.22 -3.23,-1.76 -9.31,-5.43 -40.54,-24.62 -46.45,-25.28 -3.7,39.21 1.04,152.6 2.83,196.91 1.32,32.65 3.83,63.69 5.21,95.37 0.6,13.83 -5.51,25.45 -15.38,33.72 -10.09,8.45 -22.78,12 -38.71,5.75 -16,-6.28 -16.67,-12.55 -19.29,-31.22 -1.96,-13.98 -2.94,-31.69 -2.94,-46.64 0.01,-32.32 4.09,-62.74 5.04,-94.13 1.1,-36.51 4.05,-168.9 1.37,-198.12l-54.45 -32.17c-1.92,-8.24 -1.29,-59.04 -0.44,-69.61 14.52,5.65 39.7,25.92 53.77,29.23 1.36,-23.11 3.5,-393.77 1.15,-410.4l-287.1 -0.37 -0.42 -55.36c0.06,-1.35 0.09,-2.07 0.32,-3.4 0.43,-2.43 0.2,-1.49 0.95,-2.76 6.58,-3 255.48,-0.88 286.76,-0.86l-0.59 -69.62 -89.96 -0.65 0.23 -59.77 90.29 -0.04 0.25 -79zm-548.3 1176.31c19.75,9.01 26.83,17.2 55.66,18.35 40.45,1.61 43.43,-18.32 55.78,-23.18 12.42,5.44 23.79,16.49 43.96,22.25 43.99,12.56 87.86,-7.43 116.98,-8.4 30.67,-1.03 41.65,10.42 57.01,10.22 -1.62,-9.31 -11.74,-18.79 -14.78,-27.38 5.48,-0.46 11.31,0.68 16.41,-0.77 5.26,-1.49 6.9,-4.61 13.18,-4.58 19.48,0.08 22.31,14.07 96.58,4.66 23.65,-3 57.11,-19.13 76.18,-31.86 34.68,-23.13 16.31,-9.84 39.54,-1.06 14.1,5.33 34.48,4.33 48.05,-2.97 7.12,-3.84 11.05,-11.06 15.8,-12.86 31.26,17.36 56.41,41.97 95.59,48.07 68.12,10.6 73.99,-2.03 98.94,-3.6 12.98,-0.82 1.08,4.29 31.14,4.72 -2.86,7.86 -14.36,18.47 -13.81,27.51 26.96,1.32 15.96,-20 98.14,-2.88 36.09,6.37 50.75,11.93 86.83,-3.83 12.74,-5.57 19.27,-11.88 30.35,-17.23 13.56,5.34 13.89,23.68 54.48,23.17 13.99,-0.18 21.07,-1.71 32.48,-6.16 9.77,-3.81 18.08,-9.2 26.96,-13.16l0 -1.68 -47.54 -25.81c-72.56,-47.03 -35.99,-71.77 -99.35,-102.48l-13.36 -5.75c3.11,-9.86 11.63,-11.91 10.53,-27.2 -0.94,-13.06 -7,-16.97 -13.37,-23.56 0.39,-5.28 7.06,-27.58 -3.77,-42.37 -10.74,-14.67 -37.61,-19.67 -54.4,-5.53 -4.33,3.64 -7.8,11.51 -14.33,9.87 -7.63,-1.91 -10.61,-4.27 -20.35,-1.16 -6.92,2.21 -11.93,8.32 -15.77,9 -2.3,-73.11 -86,-77.03 -140.97,-144.02 -5.39,-6.57 -13.03,-18.05 -19.46,-21.85 -8.77,2.68 -16.98,20.26 -19.33,30.33 -7.15,30.62 12.16,68.2 31.25,90.67 4.4,5.18 9.6,8.15 11.75,14.63 -10.89,0.12 -34.65,-2.2 -42.08,2.39 -18.51,11.44 -15.48,50.74 9.3,57.04 15.64,3.98 27.07,0.99 41.59,0.81 -4.21,10.06 -35.93,34.88 -26.23,70.97 11.44,42.56 41.99,35.55 64.15,35.94 0.36,11.53 -2.35,16.42 -11.75,20.04 -38.75,14.89 -90.17,-5.45 -119.62,-29.94 -13.29,-11.06 -20.28,-20.59 -29.49,-34.83 -12.92,-19.97 -13.77,-18.37 -15.64,-48.62 -1.3,-20.99 -1.92,-41.47 -2.17,-62.9 -0.22,-18.68 -2.07,-117.4 1.18,-127.95 3.37,3.39 46.43,28.53 50.69,28.29l0.79 -93.75 -53.59 -31.51 0.03 -432.82 287.5 -0.44 -0.27 -79.41c-0.07,-0.27 -0.19,-0.71 -0.34,-1.04 -5.82,-2.16 -230.71,-1.19 -273.06,-0.88 -9.07,0.07 -14.01,2.73 -14.21,-5.76 -0.3,-12.49 -0.54,-30.33 0.35,-42.56l90.43 -0.67 0.15 -80.56 -89.93 -0.46 -0.59 -81.42 -83.77 0 -0.11 81.1 -89.72 0.17c-2.09,7.8 -1.08,68.86 -0.59,81.19l90.51 0.63c0.56,7.22 1.5,43.24 -0.75,46.81 -2.56,3.06 -67.97,1.49 -71.38,1.49 -68.89,0 -149.36,-1.74 -215.62,0.13 -0.95,10.46 -1.76,74.86 0.69,81.25l286.98 0.37 -0.18 381.89c-11.35,-1.42 -41.91,-26.83 -52.31,-27.76l0.18 93.38c15.66,10.75 36.35,23.35 52.29,31.56 0,69.6 2.41,208.86 -7.2,271.73 -7.69,50.29 -94.83,102.38 -153.41,84.52 -12.43,-3.79 -14.43,-4.92 -14.18,-20.07 17.16,-2.56 29.35,2.25 43.19,-6.53 7.63,-4.84 17.82,-17.48 20.34,-29.23 9.02,-42.18 -22.38,-63.05 -25.53,-72.48 30.06,1.43 59.36,5.04 62.31,-28.15 3.86,-43.33 -39.23,-32.11 -56.32,-30.6 1.96,-5.59 8.56,-10.39 12.42,-14.53 3.8,-4.08 7.12,-7.98 11.13,-13.61 47.33,-66.34 9.79,-109.54 1.79,-108.92 -5.54,2.49 -6.46,6.3 -10.16,11.34 -43.08,58.76 -85.94,62.92 -124.26,99.89 -22.56,21.76 -19.49,35.11 -27.79,52.26 -4.89,-2.17 -10.26,-6.96 -17.42,-7.86 -10.2,-1.29 -13.78,2.56 -22.73,2.32 -8,-9.49 -17.88,-20.18 -37.9,-18.02 -24.41,2.63 -35.33,23.69 -31.14,49.05 1.83,11.04 -3.93,10.85 -8.19,18.6 -9.8,17.84 5.51,34.45 7.81,40.02 -62.29,22.69 -47.55,39.14 -74.4,72.83 -18.12,22.74 -37.46,35.26 -63.08,48.36 -6.92,3.54 -14.57,7.96 -21.39,10.9 -3.51,1.51 -4.12,2.15 -0.25,3.91z"/>
   <path class="fil0" d="M485.72 117.87l-0.34 16.37c15.3,-0.01 30.26,-0.03 45.21,-0.03 2.98,0 42.63,-1.15 44.57,1.26 2.02,5.52 0.99,98.09 0.59,111.92l-287.68 0.65 -0.12 15.84 287.69 0.34 0.19 466.23c-7.63,-0.2 -42.22,-25.55 -50.94,-26.36l-0.14 29.02c8.4,5.16 45.85,24.46 51.01,29.99l0.1 325.95 18.51 -0.27 1.02 -314.07c9.59,1.1 49.73,31.14 58.24,29.79l1.13 -28.13 -60.54 -33.97 0.06 -477.53c8.43,-2.07 193.12,-0.7 218.61,-0.7 22.45,0 52.46,1.69 74,-0.27l0.3 -15.52 -292.36 -0.35 -0.19 -113.61 96.84 -0.25 0.42 -16.04 -96.74 -0.23 -0.59 -80.15 -18.63 -1.08 0.08 75.29c-0.11,5.87 0.34,5.57 -4.42,6.09l-85.87 -0.18z"/>
   <path class="fil0" d="M307.9 1096.29c-0.79,-12.38 -8.21,-27.01 1.15,-49.66 5.5,-13.3 16.86,-23.96 30.38,-28.8 23.92,-8.56 48.1,3.64 59.62,25.36 3.22,6.06 5.47,15.46 8.99,20.85 6.15,-62.6 -76.62,-83.07 -106.51,-22.64 -5.28,-12.32 19.21,-45.16 42.86,-57.08 34.17,-17.22 52.72,-8.44 90.3,-7.82 -7.04,-7.93 -45.71,-10.17 -55.15,-10.21 -12.06,-0.05 -22.08,1.02 -32.78,4.25 -11.36,3.43 -17.04,9.29 -25.23,12.65 3.57,-15.82 40.9,-53.53 53.05,-65.32 10.62,-10.31 60.61,-50.91 61.56,-57.89 -6.11,1.52 -52.5,35.12 -58.42,39.98 -39,32 -69.39,64.18 -83.15,117.56 -3.77,14.62 -5.41,28.22 -2.64,43.62 1.86,10.33 8.26,30.84 15.97,35.16z"/>
   <path class="fil0" d="M736.9 861.7c18.16,20.71 41.63,37.16 61.16,56.17 13.36,13.01 48.88,48.58 53.03,65.36 -7.04,-3.09 -14.04,-8.82 -23.35,-12.06 -24.24,-8.44 -81.81,-4.04 -89.78,5.32 37.79,-0.48 56.35,-9.53 91.15,8.19 11.95,6.09 20.86,14.44 28.27,23.69 4.54,5.67 17.81,25.74 13.72,34.34 -6.72,-13.5 -10.4,-20.69 -22.57,-28 -24.38,-14.65 -58.29,-11.26 -73.88,9.8 -6.07,8.2 -13.94,26.03 -10.63,38.87 3.59,-1.45 3.17,-5.26 4.69,-9.92 1.24,-3.78 2.86,-7.25 4.79,-10.37 28.66,-46.44 77.39,-27.71 90.06,3.56 4.31,10.64 6.13,26.7 3.39,38.26 -1.26,5.31 -3.39,7.9 -0.57,11.31 14.39,-23.07 20.67,-47.14 11.4,-79.77 -13.8,-48.53 -43.54,-86.16 -82.22,-115.89 -8.25,-6.34 -50.53,-38.29 -58.67,-38.88z"/>
   <path class="fil0" d="M151.09 1127.14c0,-19.49 8.89,-28.99 9.92,-36.62 -8.25,3.4 -15.42,19.22 -19.75,29.86 -9.05,22.2 -29.58,38.99 -51.06,48.1 -5.65,2.39 -12.03,4.39 -18.65,5.93 -6.21,1.44 -15.25,1.99 -18.49,5.97 10,5.87 44.98,-4.26 52.45,-7.76 17.9,-8.41 22.9,-19.24 35.06,-28.33 1.38,1.21 0.71,0.26 2.41,2.72 2.41,3.48 4.25,9.9 9.27,16.76 23.66,32.31 75.25,26.07 110.51,18.58 0.75,-0.16 2.25,-0.53 2.95,-0.76 2.77,-0.9 1.69,-0.62 2.65,-1.2 -2.99,-1.69 -6.19,-1.56 -10.13,-1.64 -18.06,-0.34 -56.57,1.06 -69.85,-3.06 -22.19,-6.88 -37.29,-22.6 -37.29,-48.54z"/>
   <path class="fil0" d="M1011.52 1091.47c14.29,28.68 14.83,59.87 -10.78,76.19 -27.71,17.66 -61.27,8.14 -87.59,11.15l-5.63 1.57c3.31,2.28 13.88,4.2 18.1,4.88 6.96,1.12 12.64,2.18 19.74,2.66 77.14,5.21 77.02,-36.95 87.44,-44.04 5.18,8.05 23.9,23.48 34.34,28.57 7.93,3.87 42.85,13.56 52.45,7.93 -2.27,-3.96 -22.9,-5.98 -37.09,-11.98 -57.13,-24.13 -51.65,-70.51 -70.97,-76.93z"/>
  </g>
 </g>
</svg>
